<svg xmlns="http://www.w3.org/2000/svg" viewBox="0 0 113.45 139.22"><defs><style>.cls-1,.cls-2{fill:#dea505;}.cls-1,.cls-4{fill-rule:evenodd;}.cls-3,.cls-4{fill:#366a5d;}</style></defs><g id="Layer_2" data-name="Layer 2"><g id="Layer_1-2" data-name="Layer 1"><path class="cls-1" d="M56.73,0l2.35,6.69,7.08.17-5.63,4.29,2,6.79-5.84-4-5.83,4,2-6.79L47.3,6.86l7.09-.17Z"/><path class="cls-2" d="M71.44,39.35l0,0-.81-.46a19.84,19.84,0,0,0-10.2-3,17.17,17.17,0,0,0-5.6.88L49,38.62c-6.15,1.92-12,.19-17.41-2.53-2.47-1.23-4.85-2.66-7.16-4.05l-2.13-1.27.18,9.75q1,.6,1.95,1.17a75.37,75.37,0,0,0,7.16,3.88c5.8,2.69,11.72,4,18.78,1.82,6.66-3.24,10.75-2.72,16.4-.15L46.37,87.93l1.6.92L72.28,39.79Z"/><path class="cls-3" d="M31.55,31.33v-.15a23.73,23.73,0,0,0,7.82,1.65,23.21,23.21,0,0,0,6.87-.71l6.54-1.85A19.11,19.11,0,0,1,59,29.55a23.05,23.05,0,0,1,12,4.19l3.2-7C70.26,22.91,64.51,21.83,59,21.6a29.36,29.36,0,0,0-8.63,1L44,24.26a14.52,14.52,0,0,1-4.63.63,15.63,15.63,0,0,1-6.61-1.73l-1.31-.63v-.61l-.85-5.25c6.59-1,12.89-1.67,19.12-2,1.23-4.24-1.81-4.68-5.12-7.23a244.15,244.15,0,0,0-25.49,2.62c-.1,8.35-.17,6,5.31,10.8,0,.19,0,.39,0,.58V32c2.31,1.39,4.69,2.82,7.16,4.05Z"/><path class="cls-3" d="M24.39,52.91l-.47,11.54a16,16,0,0,0,7.74,13.73l13,7.51,17.09-33.6a12.3,12.3,0,0,0-6.86-2,11.78,11.78,0,0,0-4,.73l-6.43,2a12.4,12.4,0,0,1-3.94.73,12.79,12.79,0,0,1-9-3.8V45.06a76.83,76.83,0,0,1-7.16-3.82Zm7.16,5.76a21.27,21.27,0,0,0,9.05,2,20.69,20.69,0,0,0,10.23-2.78L41.77,75.46l-6.31-3.4a8.91,8.91,0,0,1-4.39-7.61Z"/><path class="cls-3" d="M94.4,10.15A240.68,240.68,0,0,0,68.87,7.46c-3.33,2.58-6.47,3-4.9,7.19a149.38,149.38,0,0,1,19,2.12L81.9,24.12l0,3.69L50.1,90l6.57,4.14L83.12,79a16.15,16.15,0,0,0,7.74-13.92,429.37,429.37,0,0,1-1.77-43.66c0-.17,0-.34,0-.51C94.51,16.15,94.4,18.36,94.4,10.15ZM79.32,72.82,61.93,82.59,81.79,42.92l1.77,22.2A8.91,8.91,0,0,1,79.32,72.82Z"/><path class="cls-4" d="M2,135.23H.5v-.86H4.65v.86H3.05l0,4h-1Zm4.1,2.24v1.71h-1l0-4.49H7.35a2.65,2.65,0,0,1,1.33.24,1.14,1.14,0,0,1,.41.46,1.26,1.26,0,0,1,.12.55,1.24,1.24,0,0,1-.85,1.31,1.3,1.3,0,0,1,.43.22,1.49,1.49,0,0,1,.39,1,3.63,3.63,0,0,0,.11.67H8.22a3.68,3.68,0,0,1-.1-.63,3.71,3.71,0,0,0-.07-.41,1.11,1.11,0,0,0-.12-.27.82.82,0,0,0-.56-.36,3.06,3.06,0,0,0-.47,0Zm0-.8H7.46a.92.92,0,0,0,.48-.09.6.6,0,0,0,.21-.52.49.49,0,0,0-.32-.53,1.1,1.1,0,0,0-.37,0H6.12ZM10,139.18v-4.49H11l0,4.49Zm1.89,0,0-4.49h2.55a1.89,1.89,0,0,1,.86.14,1.08,1.08,0,0,1,.49.52,1.35,1.35,0,0,1,.11.52,1.2,1.2,0,0,1-.3.81,1.06,1.06,0,0,1-.35.26A1.08,1.08,0,0,1,15.9,138a1.22,1.22,0,0,1-.21.74,1.07,1.07,0,0,1-.77.43l-.53,0Zm.95-2.64h1.3a1.22,1.22,0,0,0,.35,0,.44.44,0,0,0,.25-.21.59.59,0,0,0,.09-.31.48.48,0,0,0-.2-.4,1,1,0,0,0-.47-.09H12.84Zm0,1.84h1.3a1.33,1.33,0,0,0,.35,0,.53.53,0,0,0,.25-.22.61.61,0,0,0,.08-.3.45.45,0,0,0-.2-.4.9.9,0,0,0-.47-.09H12.85Zm4.65-3.69v2.69a1.5,1.5,0,0,0,.06.49.72.72,0,0,0,.4.47,1.33,1.33,0,0,0,.57.13,1.41,1.41,0,0,0,.57-.11.75.75,0,0,0,.33-.3,1.8,1.8,0,0,0,.09-.68v-2.69h.95v2.65a3.18,3.18,0,0,1-.09.84,1.34,1.34,0,0,1-.8.85,2.51,2.51,0,0,1-1.06.19,2.17,2.17,0,0,1-1.53-.46,1.3,1.3,0,0,1-.38-.66,3,3,0,0,1-.06-.7v-2.71Zm4.77,1.2,0,3.29h-.91l0-4.49h1.22l1.8,3.34v-3.34h.91l0,4.49H24.13Zm3.49,3.29,1.84-4.49h1.11l1.88,4.49H29.47l-.44-1h-1.7l-.44,1Zm2.41-3.41-.64,1.57h1.28Zm2.93,3.41,0-4.5h1.19l0,3.47h1.93v1Zm5.48-4.49H38.5a3.5,3.5,0,0,1,1.1.14,1.5,1.5,0,0,1,1,1,3.65,3.65,0,0,1,.19,1.15,3.9,3.9,0,0,1-.17,1.15,1.45,1.45,0,0,1-.58.82,1.82,1.82,0,0,1-.87.26H36.61Zm1,.8v2.89h.95a1.09,1.09,0,0,0,.87-.28,1.18,1.18,0,0,0,.24-.49,2.41,2.41,0,0,0,.09-.67,2.15,2.15,0,0,0-.19-.92.81.81,0,0,0-.48-.46,1.86,1.86,0,0,0-.54-.07Zm4,3.69,0-4.6h3.33v.89H42.58v.86h2v.85h-2v1.11h2.3v.89Z"/><path class="cls-4" d="M50.77,138.34v.86H49.09a3.47,3.47,0,0,1-.74-.06,1.64,1.64,0,0,1-1.26-1,3.32,3.32,0,0,1-.25-1.35,3,3,0,0,1,.37-1.58,1.56,1.56,0,0,1,.77-.67,3.34,3.34,0,0,1,1.14-.17h1.63v.86H49.24a1.28,1.28,0,0,0-1,.36,1.69,1.69,0,0,0-.26,1.1,1.75,1.75,0,0,0,.42,1.4,1.38,1.38,0,0,0,.9.24Zm2.69-3.67a2.86,2.86,0,0,1,1.16.23,1.58,1.58,0,0,1,.85.92,3.71,3.71,0,0,1,.2,1.17,3,3,0,0,1-.23,1.21,1.73,1.73,0,0,1-.72.77,2.5,2.5,0,0,1-1.19.25,3.07,3.07,0,0,1-1.33-.28,1.68,1.68,0,0,1-.81-1,2.76,2.76,0,0,1-.16-1,2.23,2.23,0,0,1,.63-1.83,2.39,2.39,0,0,1,1.6-.47Zm0,.76a1,1,0,0,0-.93.43,2,2,0,0,0-.22,1.08,1.83,1.83,0,0,0,.29,1.16,1,1,0,0,0,.89.37,1,1,0,0,0,.95-.49,2.17,2.17,0,0,0,.2-1.06,2,2,0,0,0-.23-1,1,1,0,0,0-1-.44Zm3.84.47v3.3h-.91l0-4.5h1.23l1.8,3.35V134.7h.91l0,4.5H59.11Zm4.94-.4H60.78v-.8h3.87v.8H63.17l0,3.7h-1Zm2,3.7L66,134.7h1.1L69,139.2H67.88l-.44-1H65.73l-.43,1Zm2.4-3.42-.64,1.58h1.28Zm2.91,3.42v-.81h2a1.4,1.4,0,0,0,.66-.1.45.45,0,0,0,.24-.42.5.5,0,0,0-.28-.48,1.05,1.05,0,0,0-.5-.08h-.84a1.69,1.69,0,0,1-1.1-.28,1.2,1.2,0,0,1-.34-.46,1.41,1.41,0,0,1-.11-.54,1.49,1.49,0,0,1,.27-.87,1.15,1.15,0,0,1,.87-.44l.6,0h2.23v.8h-2a3.23,3.23,0,0,0-.6,0,.4.4,0,0,0-.3.46.42.42,0,0,0,.25.43,1.49,1.49,0,0,0,.57.08h.72a2.76,2.76,0,0,1,.82.09,1,1,0,0,1,.66.57,1.6,1.6,0,0,1,.15.7,1.49,1.49,0,0,1-.18.73,1.08,1.08,0,0,1-.79.55,4.73,4.73,0,0,1-.77,0Zm6.38-4.5h1.9a3.53,3.53,0,0,1,1.11.14,1.5,1.5,0,0,1,1,1A3.66,3.66,0,0,1,80,137a3.58,3.58,0,0,1-.17,1.14,1.44,1.44,0,0,1-.58.82,1.82,1.82,0,0,1-.87.26l-.62,0H75.89Zm1,.8v2.89h1a1.13,1.13,0,0,0,.87-.27,1.24,1.24,0,0,0,.23-.49A2.54,2.54,0,0,0,79,137a2.16,2.16,0,0,0-.18-.92.79.79,0,0,0-.48-.45,1.34,1.34,0,0,0-.54-.08Zm5.89-.83a2.86,2.86,0,0,1,1.16.23,1.61,1.61,0,0,1,.85.92,3.23,3.23,0,0,1,.19,1.17,2.81,2.81,0,0,1-.23,1.21A1.66,1.66,0,0,1,84,139a2.51,2.51,0,0,1-1.2.25,3.05,3.05,0,0,1-1.32-.28,1.65,1.65,0,0,1-.81-1,2.76,2.76,0,0,1-.16-1,2.26,2.26,0,0,1,.62-1.83,2.43,2.43,0,0,1,1.61-.47Zm0,.76a1,1,0,0,0-.93.43,2.64,2.64,0,0,0,.06,2.24,1.06,1.06,0,0,0,.9.37,1,1,0,0,0,1-.49,2.29,2.29,0,0,0,.2-1.06,2,2,0,0,0-.23-1,1,1,0,0,0-1-.44Z"/><path class="cls-4" d="M87.15,139.2l0-4.8H90.6v.94H88.26v.88h2.1v.9h-2.1v1.15h2.56v.93Zm4.32,0v-.81h2.06a1.46,1.46,0,0,0,.66-.09.49.49,0,0,0,.23-.43.52.52,0,0,0-.28-.48,1.23,1.23,0,0,0-.5-.08H92.8a1.72,1.72,0,0,1-1.11-.28,1.23,1.23,0,0,1-.34-.46,1.41,1.41,0,0,1-.11-.54,1.43,1.43,0,0,1,.28-.87,1.11,1.11,0,0,1,.86-.44l.59,0H95.2v.8h-2a3.41,3.41,0,0,0-.6,0,.41.41,0,0,0-.3.46.44.44,0,0,0,.25.44,1.89,1.89,0,0,0,.57.07h.72a2.88,2.88,0,0,1,.83.09,1.11,1.11,0,0,1,.66.57,1.82,1.82,0,0,1,.14.7,1.39,1.39,0,0,1-.18.73,1.12,1.12,0,0,1-.79.56,6.85,6.85,0,0,1-.77,0Zm5.66-3.7H95.69v-.8h3.88v.8H98.08l0,3.7h-1Zm2,3.7,1.84-4.5H102l1.88,4.5h-1.12l-.44-1h-1.7l-.43,1Zm2.4-3.42-.64,1.58h1.28Zm2.9-1.08h1.91a3.53,3.53,0,0,1,1.11.14,1.52,1.52,0,0,1,1,1,3.34,3.34,0,0,1,.19,1.15,3.64,3.64,0,0,1-.17,1.15,1.42,1.42,0,0,1-.58.81,1.82,1.82,0,0,1-.87.26l-.62,0h-1.9Zm1,.8,0,2.89h.95a1.12,1.12,0,0,0,.86-.27,1.32,1.32,0,0,0,.24-.49,2.48,2.48,0,0,0,.09-.68,2,2,0,0,0-.19-.92.8.8,0,0,0-.47-.45,1.6,1.6,0,0,0-.55-.08Zm5.89-.83a2.79,2.79,0,0,1,1.16.23,1.57,1.57,0,0,1,.85.92,3.26,3.26,0,0,1,.2,1.17,2.81,2.81,0,0,1-.23,1.21,1.63,1.63,0,0,1-.72.77,2.47,2.47,0,0,1-1.19.25,2.93,2.93,0,0,1-1.33-.28,1.72,1.72,0,0,1-.81-1,2.76,2.76,0,0,1-.16-1,2.3,2.3,0,0,1,.63-1.83,2.42,2.42,0,0,1,1.6-.47Zm0,.76a1.05,1.05,0,0,0-.94.43,2.6,2.6,0,0,0,.07,2.24,1.06,1.06,0,0,0,.9.37,1,1,0,0,0,1-.49,2.14,2.14,0,0,0,.19-1,2,2,0,0,0-.23-1.05,1,1,0,0,0-.94-.45Z"/><path class="cls-4" d="M43.69,127.54l-.07-24.68H61.53v4.8H49.48v4.57H60.33v4.61H49.5l0,5.91h12v4.79Z"/><path class="cls-4" d="M41.16,123.17v4.37H32.6a21,21,0,0,1-3.75-.25,8.49,8.49,0,0,1-6.44-5.06,16.74,16.74,0,0,1-1.29-6.91A15.13,15.13,0,0,1,23,107.24a7.92,7.92,0,0,1,3.95-3.4,16.14,16.14,0,0,1,5.8-.89H41.1v4.39H33.38q-3.51,0-5.14,1.87-1.35,1.55-1.34,5.6,0,5.46,2.13,7.17a7.32,7.32,0,0,0,4.6,1.19Z"/><path class="cls-4" d="M7.86,107.29H0v-4.38H21.21v4.38H13.08l.06,20.21H7.91Z"/><path class="cls-1" d="M97.08,109.47v17.91h-5V103h6.66l9.71,18.19V103h5v24.42H107Zm-24.37,4.28H80a4.66,4.66,0,0,0,2.6-.54,3.21,3.21,0,0,0,1.16-2.83A2.7,2.7,0,0,0,82,107.52a6.75,6.75,0,0,0-2-.21H72.71Zm0,4.34v9.29H67.52V103H79.43c3.42,0,5.82.43,7.18,1.31a6,6,0,0,1,2.22,2.5,6.66,6.66,0,0,1,.67,3c0,3.7-1.55,6.08-4.67,7.14a6.92,6.92,0,0,1,2.35,1.21,8.2,8.2,0,0,1,2.09,5.61,16.05,16.05,0,0,0,.6,3.68H84a19.55,19.55,0,0,1-.54-3.47,14.07,14.07,0,0,0-.37-2.21,5.72,5.72,0,0,0-.65-1.47,4.49,4.49,0,0,0-3-1.94,13.71,13.71,0,0,0-2.53-.2Z"/></g></g></svg>